<svg width="24.000000" height="24.000000" viewBox="0 0 24 24" fill="none" xmlns="http://www.w3.org/2000/svg" xmlns:xlink="http://www.w3.org/1999/xlink">
	<desc>
			Created with Pixso.
	</desc>
	<defs>
		<clipPath id="clip42_852">
			<rect id="mdi:user" width="24.000000" height="24.000000" fill="white" fill-opacity="0"/>
		</clipPath>
	</defs>
	<rect id="mdi:user" width="24.000000" height="24.000000" fill="#FFFFFF" fill-opacity="0"/>
	<g clip-path="url(#clip42_852)">
		<path id="Vector" d="M12 4C13.06 4 14.07 4.42 14.82 5.17C15.57 5.92 16 6.93 16 8C16 9.06 15.57 10.07 14.82 10.82C14.07 11.57 13.06 12 12 12C10.93 12 9.92 11.57 9.17 10.82C8.42 10.07 8 9.06 8 8C8 6.93 8.42 5.92 9.17 5.17C9.92 4.42 10.93 4 12 4ZM12 14C16.41 14 20 15.79 20 18L20 20L4 20L4 18C4 15.79 7.58 14 12 14Z" fill="#FBFBFB" fill-opacity="1.000000" fill-rule="nonzero"/>
	</g>
</svg>
