<svg width="24.000000" height="24.000000" viewBox="0 0 24 24" fill="none" xmlns="http://www.w3.org/2000/svg" xmlns:xlink="http://www.w3.org/1999/xlink">
	<desc>
			Created with Pixso.
	</desc>
	<defs>
		<clipPath id="clip42_825">
			<rect id="mdi:users" width="19.835608" height="19.835606" transform="translate(4.740234 -0.393372) rotate(15.000000)" fill="white" fill-opacity="0"/>
		</clipPath>
	</defs>
	<rect id="mdi:users" width="19.835608" height="19.835606" transform="translate(4.740234 -0.393372) rotate(15.000000)" fill="#FFFFFF" fill-opacity="0"/>
	<g clip-path="url(#clip42_825)">
		<path id="Vector" d="M13.87 16.6L13.44 18.19L2.27 15.2L2.7 13.6C2.7 13.6 3.55 10.41 9.14 11.91C14.73 13.4 13.87 16.6 13.87 16.6ZM13.11 8.26C13.26 7.71 13.24 7.13 13.06 6.58C12.87 6.04 12.53 5.57 12.08 5.22C11.62 4.87 11.08 4.67 10.5 4.63C9.93 4.59 9.37 4.72 8.87 5.01C8.37 5.3 7.97 5.72 7.72 6.23C7.47 6.75 7.37 7.32 7.45 7.89C7.52 8.46 7.76 8.99 8.14 9.42C8.52 9.85 9.01 10.16 9.57 10.31C10.31 10.51 11.1 10.4 11.76 10.02C12.43 9.64 12.91 9 13.11 8.26ZM14.68 13.39C15.07 13.9 15.34 14.49 15.48 15.12C15.61 15.75 15.61 16.4 15.47 17.02L15.04 18.62L18.23 19.48L18.66 17.88C18.66 17.88 19.44 14.98 14.68 13.39ZM15.85 6C15.31 5.85 14.72 5.87 14.19 6.06C14.49 6.87 14.53 7.75 14.31 8.58C14.09 9.42 13.61 10.16 12.94 10.71C13.31 11.14 13.81 11.45 14.36 11.59C15.1 11.79 15.89 11.69 16.55 11.3C17.22 10.92 17.7 10.29 17.9 9.55C18.1 8.81 18 8.02 17.61 7.35C17.23 6.69 16.6 6.2 15.85 6Z" fill="#FBFBFB" fill-opacity="1.000000" fill-rule="nonzero"/>
	</g>
</svg>
